<svg width="16" height="24" viewBox="0 0 16 24" fill="none" xmlns="http://www.w3.org/2000/svg">
<path fill-rule="evenodd" clip-rule="evenodd" d="M8.00005 1.09091e-05C6.90962 0.00107728 5.86412 0.442131 5.09157 1.22729C4.32001 2.01245 3.88613 3.07781 3.88404 4.18885V6.229H0.535287C0.239407 6.229 0 6.47296 0 6.77446V20.7273C0 22.5351 1.43858 24 3.21172 24H12.7883C14.5614 24 16 22.5351 16 20.7273V6.77446C16 6.62957 15.9435 6.49106 15.8432 6.38879C15.7428 6.28652 15.6069 6.22899 15.4647 6.22899H12.1159V4.18884C12.1139 3.07769 11.68 2.01233 10.9084 1.22728C10.1358 0.442121 9.09032 0.00106364 7.99994 0L8.00005 1.09091e-05ZM4.95454 4.18885C4.95454 2.4747 6.31786 1.08547 8.00005 1.08547C9.68225 1.08547 11.0456 2.4747 11.0456 4.18885V6.229H4.95454V4.18885ZM14.9296 7.31978V20.7271C14.9296 21.3056 14.7038 21.8606 14.3023 22.2697C13.9008 22.6788 13.3561 22.9089 12.7885 22.9089H3.21191C2.02946 22.9089 1.07076 21.932 1.07076 20.7271V7.31978H3.88423V10.2707C3.88423 10.5722 4.12365 10.8162 4.41952 10.8162C4.71435 10.8162 4.9548 10.5722 4.9548 10.2707V7.31978H11.0458V10.2707C11.0458 10.5722 11.2863 10.8162 11.5811 10.8162C11.877 10.8162 12.1164 10.5722 12.1164 10.2707V7.31978H14.9296Z" fill="black"/>
</svg>
