<svg width="16" height="16" viewBox="0 0 16 16" fill="none" xmlns="http://www.w3.org/2000/svg">
<path id="close copy" fill-rule="evenodd" clip-rule="evenodd" d="M0.187452 15.8125C0.437387 16.0625 0.842613 16.0625 1.09255 15.8125L8 8.9051L14.9075 15.8125C15.1574 16.0625 15.5626 16.0625 15.8125 15.8125C16.0625 15.5626 16.0625 15.1574 15.8125 14.9075L8.9051 8L15.8125 1.09255C16.0625 0.842613 16.0625 0.437387 15.8125 0.187451C15.5626 -0.0624842 15.1574 -0.0624842 14.9075 0.187451L8 7.0949L1.09255 0.187452C0.842613 -0.0624839 0.437387 -0.0624839 0.187452 0.187452C-0.0624839 0.437387 -0.0624839 0.842613 0.187452 1.09255L7.0949 8L0.187452 14.9075C-0.0624839 15.1574 -0.0624839 15.5626 0.187452 15.8125Z" fill="black"/>
</svg>
