<svg width="139" height="28" viewBox="0 0 139 28" fill="none" xmlns="http://www.w3.org/2000/svg">
<path d="M18.9614 22.2882H9.00542L7.40942 27.0002H0.607422L10.2594 0.324219H17.7834L27.4354 27.0002H20.5574L18.9614 22.2882ZM17.2894 17.2722L13.9834 7.50622L10.7154 17.2722H17.2894Z" fill="#333333"/>
<path d="M52.261 5.79622V27.0002H45.763V24.1122C45.1043 25.0496 44.205 25.8096 43.065 26.3922C41.9503 26.9496 40.709 27.2282 39.341 27.2282C37.7197 27.2282 36.2883 26.8736 35.047 26.1642C33.8057 25.4296 32.843 24.3782 32.159 23.0102C31.475 21.6422 31.133 20.0336 31.133 18.1842V5.79622H37.593V17.3102C37.593 18.7289 37.9603 19.8309 38.695 20.6162C39.4297 21.4016 40.4177 21.7942 41.659 21.7942C42.9257 21.7942 43.9263 21.4016 44.661 20.6162C45.3957 19.8309 45.763 18.7289 45.763 17.3102V5.79622H52.261Z" fill="#333333"/>
<path d="M64.3765 9.33022C65.1365 8.16488 66.0865 7.25288 67.2265 6.59422C68.3665 5.91022 69.6331 5.56822 71.0265 5.56822V12.4462H69.2405C67.6191 12.4462 66.4031 12.8009 65.5925 13.5102C64.7818 14.1942 64.3765 15.4102 64.3765 17.1582V27.0002H57.8785V5.79622H64.3765V9.33022Z" fill="#333333"/>
<path d="M84.7344 27.3042C82.657 27.3042 80.7824 26.8609 79.1104 25.9742C77.4637 25.0876 76.159 23.8209 75.1964 22.1742C74.259 20.5276 73.7904 18.6022 73.7904 16.3982C73.7904 14.2196 74.2717 12.3069 75.2344 10.6602C76.197 8.98822 77.5144 7.70888 79.1864 6.82222C80.8584 5.93555 82.733 5.49222 84.8104 5.49222C86.8877 5.49222 88.7624 5.93555 90.4344 6.82222C92.1064 7.70888 93.4237 8.98822 94.3864 10.6602C95.349 12.3069 95.8304 14.2196 95.8304 16.3982C95.8304 18.5769 95.3364 20.5022 94.3484 22.1742C93.3857 23.8209 92.0557 25.0876 90.3584 25.9742C88.6864 26.8609 86.8117 27.3042 84.7344 27.3042ZM84.7344 21.6802C85.9757 21.6802 87.027 21.2242 87.8884 20.3122C88.775 19.4002 89.2184 18.0956 89.2184 16.3982C89.2184 14.7009 88.7877 13.3962 87.9264 12.4842C87.0904 11.5722 86.0517 11.1162 84.8104 11.1162C83.5437 11.1162 82.4924 11.5722 81.6564 12.4842C80.8204 13.3709 80.4024 14.6756 80.4024 16.3982C80.4024 18.0956 80.8077 19.4002 81.6184 20.3122C82.4544 21.2242 83.493 21.6802 84.7344 21.6802Z" fill="#333333"/>
<path d="M106.726 9.33022C107.486 8.16488 108.436 7.25288 109.576 6.59422C110.716 5.91022 111.982 5.56822 113.376 5.56822V12.4462H111.59C109.968 12.4462 108.752 12.8009 107.942 13.5102C107.131 14.1942 106.726 15.4102 106.726 17.1582V27.0002H100.228V5.79622H106.726V9.33022Z" fill="#333333"/>
<path d="M116.14 16.3602C116.14 14.1816 116.545 12.2689 117.356 10.6222C118.192 8.97555 119.319 7.70888 120.738 6.82222C122.156 5.93555 123.74 5.49222 125.488 5.49222C126.982 5.49222 128.287 5.79622 129.402 6.40422C130.542 7.01222 131.416 7.81022 132.024 8.79822V5.79622H138.522V27.0002H132.024V23.9982C131.39 24.9862 130.504 25.7842 129.364 26.3922C128.249 27.0002 126.944 27.3042 125.45 27.3042C123.727 27.3042 122.156 26.8609 120.738 25.9742C119.319 25.0622 118.192 23.7829 117.356 22.1362C116.545 20.4642 116.14 18.5389 116.14 16.3602ZM132.024 16.3982C132.024 14.7769 131.568 13.4976 130.656 12.5602C129.769 11.6229 128.68 11.1542 127.388 11.1542C126.096 11.1542 124.994 11.6229 124.082 12.5602C123.195 13.4722 122.752 14.7389 122.752 16.3602C122.752 17.9816 123.195 19.2736 124.082 20.2362C124.994 21.1736 126.096 21.6422 127.388 21.6422C128.68 21.6422 129.769 21.1736 130.656 20.2362C131.568 19.2989 132.024 18.0196 132.024 16.3982Z" fill="#333333"/>
</svg>
