<svg width="139" height="28" viewBox="0 0 139 28" fill="none" xmlns="http://www.w3.org/2000/svg">
<path d="M18.962 22.288H9.006L7.41 27H0.608L10.26 0.323999H17.784L27.436 27H20.558L18.962 22.288ZM17.29 17.272L13.984 7.506L10.716 17.272H17.29ZM52.2616 5.796V27H45.7636V24.112C45.1049 25.0493 44.2056 25.8093 43.0656 26.392C41.9509 26.9493 40.7096 27.228 39.3416 27.228C37.7202 27.228 36.2889 26.8733 35.0476 26.164C33.8062 25.4293 32.8436 24.378 32.1596 23.01C31.4756 21.642 31.1336 20.0333 31.1336 18.184V5.796H37.5936V17.31C37.5936 18.7287 37.9609 19.8307 38.6956 20.616C39.4302 21.4013 40.4182 21.794 41.6596 21.794C42.9262 21.794 43.9269 21.4013 44.6616 20.616C45.3962 19.8307 45.7636 18.7287 45.7636 17.31V5.796H52.2616ZM64.377 9.33C65.137 8.16467 66.087 7.25267 67.227 6.594C68.367 5.91 69.6337 5.568 71.027 5.568V12.446H69.241C67.6197 12.446 66.4037 12.8007 65.593 13.51C64.7824 14.194 64.377 15.41 64.377 17.158V27H57.879V5.796H64.377V9.33ZM84.735 27.304C82.6576 27.304 80.783 26.8607 79.111 25.974C77.4643 25.0873 76.1596 23.8207 75.197 22.174C74.2596 20.5273 73.791 18.602 73.791 16.398C73.791 14.2193 74.2723 12.3067 75.235 10.66C76.1976 8.988 77.515 7.70867 79.187 6.822C80.859 5.93533 82.7336 5.492 84.811 5.492C86.8883 5.492 88.763 5.93533 90.435 6.822C92.107 7.70867 93.4243 8.988 94.387 10.66C95.3496 12.3067 95.831 14.2193 95.831 16.398C95.831 18.5767 95.337 20.502 94.349 22.174C93.3863 23.8207 92.0563 25.0873 90.359 25.974C88.687 26.8607 86.8123 27.304 84.735 27.304ZM84.735 21.68C85.9763 21.68 87.0276 21.224 87.889 20.312C88.7756 19.4 89.219 18.0953 89.219 16.398C89.219 14.7007 88.7883 13.396 87.927 12.484C87.091 11.572 86.0523 11.116 84.811 11.116C83.5443 11.116 82.493 11.572 81.657 12.484C80.821 13.3707 80.403 14.6753 80.403 16.398C80.403 18.0953 80.8083 19.4 81.619 20.312C82.455 21.224 83.4936 21.68 84.735 21.68ZM106.726 9.33C107.486 8.16467 108.436 7.25267 109.576 6.594C110.716 5.91 111.983 5.568 113.376 5.568V12.446H111.59C109.969 12.446 108.753 12.8007 107.942 13.51C107.132 14.194 106.726 15.41 106.726 17.158V27H100.228V5.796H106.726V9.33ZM116.14 16.36C116.14 14.1813 116.546 12.2687 117.356 10.622C118.192 8.97533 119.32 7.70867 120.738 6.822C122.157 5.93533 123.74 5.492 125.488 5.492C126.983 5.492 128.288 5.796 129.402 6.404C130.542 7.012 131.416 7.81 132.024 8.798V5.796H138.522V27H132.024V23.998C131.391 24.986 130.504 25.784 129.364 26.392C128.25 27 126.945 27.304 125.45 27.304C123.728 27.304 122.157 26.8607 120.738 25.974C119.32 25.062 118.192 23.7827 117.356 22.136C116.546 20.464 116.14 18.5387 116.14 16.36ZM132.024 16.398C132.024 14.7767 131.568 13.4973 130.656 12.56C129.77 11.6227 128.68 11.154 127.388 11.154C126.096 11.154 124.994 11.6227 124.082 12.56C123.196 13.472 122.752 14.7387 122.752 16.36C122.752 17.9813 123.196 19.2733 124.082 20.236C124.994 21.1733 126.096 21.642 127.388 21.642C128.68 21.642 129.77 21.1733 130.656 20.236C131.568 19.2987 132.024 18.0193 132.024 16.398Z" fill="#333333"/>
</svg>
