<svg width="104" height="21" viewBox="0 0 104 21" fill="none" xmlns="http://www.w3.org/2000/svg">
<path fill-rule="evenodd" clip-rule="evenodd" d="M5.13158 20.0132L6.38596 16.3355H13.9408L15.1952 20.0132H20.3838L13 0H7.38377L0 20.0132H5.13158ZM12.6864 12.6294H7.64035L10.1776 5.21711L12.6864 12.6294ZM31.8586 19.3575C30.9558 19.9086 29.9057 20.1842 28.7083 20.1842C26.8838 20.1842 25.4346 19.576 24.3607 18.3596C23.2869 17.1433 22.75 15.4708 22.75 13.3421V4.10526H27.5965V12.7434C27.5965 13.8268 27.8768 14.6678 28.4375 15.2664C28.9982 15.8651 29.7537 16.1645 30.7039 16.1645C31.6923 16.1645 32.4715 15.8509 33.0417 15.2237C33.6118 14.5965 33.8969 13.7032 33.8969 12.5439V4.10526H38.8004V20.0132H33.8969V17.1338C33.4408 18.0651 32.7613 18.8063 31.8586 19.3575ZM47.7522 20.0132V12.7719C47.7522 11.4605 48.1086 10.5292 48.8213 9.97807C49.534 9.4269 50.5365 9.15132 51.8289 9.15132H53.2259V3.93421C52.1045 3.93421 51.064 4.2193 50.1042 4.78947C49.1444 5.35965 48.3604 6.12939 47.7522 7.09868V4.10526H42.8772V20.0132H47.7522ZM67.6656 19.2292C66.4207 19.8849 65.0095 20.2127 63.432 20.2127C61.8545 20.2127 60.4386 19.8849 59.1842 19.2292C57.9298 18.5735 56.9463 17.6279 56.2336 16.3925C55.5208 15.1572 55.1645 13.7127 55.1645 12.0592C55.1645 10.4057 55.5208 8.96126 56.2336 7.72588C56.9463 6.4905 57.9298 5.54496 59.1842 4.88925C60.4386 4.23355 61.8545 3.9057 63.432 3.9057C65.0095 3.9057 66.4207 4.23355 67.6656 4.88925C68.9105 5.54496 69.8893 6.4905 70.602 7.72588C71.3147 8.96126 71.6711 10.4057 71.6711 12.0592C71.6711 13.7127 71.3147 15.1572 70.602 16.3925C69.8893 17.6279 68.9105 18.5735 67.6656 19.2292ZM63.432 15.9649C62.5007 15.9649 61.7167 15.6323 61.08 14.9671C60.4433 14.3019 60.125 13.3326 60.125 12.0592C60.125 10.7858 60.4433 9.81177 61.08 9.13706C61.7167 8.46235 62.5007 8.125 63.432 8.125C64.3633 8.125 65.1425 8.46235 65.7697 9.13706C66.3969 9.81177 66.7105 10.7858 66.7105 12.0592C66.7105 13.3326 66.3969 14.3019 65.7697 14.9671C65.1425 15.6323 64.3633 15.9649 63.432 15.9649ZM80.8651 9.97807C80.1524 10.5292 79.7961 11.4605 79.7961 12.7719V20.0132H74.9211V4.10526H79.7961V7.09868C80.4042 6.12939 81.1882 5.35965 82.148 4.78947C83.1078 4.2193 84.1484 3.93421 85.2697 3.93421V9.15132H83.8728C82.5804 9.15132 81.5779 9.4269 80.8651 9.97807ZM94.0789 20.2127C95.2953 20.2127 96.3406 19.9371 97.2149 19.386C98.0892 18.8348 98.7354 18.0841 99.1535 17.1338V20.0132H104V4.10526H99.1535V6.98465C98.7354 6.03436 98.0892 5.28363 97.2149 4.73246C96.3406 4.18129 95.2953 3.9057 94.0789 3.9057C92.7675 3.9057 91.5939 4.23355 90.5581 4.88925C89.5223 5.54496 88.705 6.48575 88.1064 7.71162C87.5077 8.9375 87.2083 10.3867 87.2083 12.0592C87.2083 13.7127 87.5077 15.1572 88.1064 16.3925C88.705 17.6279 89.5223 18.5735 90.5581 19.2292C91.5939 19.8849 92.7675 20.2127 94.0789 20.2127ZM93.1239 14.9101C93.7606 15.5943 94.6016 15.9364 95.6469 15.9364C96.6732 15.9364 97.5143 15.5848 98.17 14.8816C98.8257 14.1784 99.1535 13.2376 99.1535 12.0592C99.1535 10.8618 98.8257 9.9163 98.17 9.22259C97.5143 8.52887 96.6732 8.18202 95.6469 8.18202C94.6016 8.18202 93.7606 8.52412 93.1239 9.20833C92.4872 9.89254 92.1689 10.8428 92.1689 12.0592C92.1689 13.2756 92.4872 14.2259 93.1239 14.9101Z" fill="black"/>
</svg>
