<svg width="18" height="19" viewBox="0 0 18 19" fill="none" xmlns="http://www.w3.org/2000/svg">
<path fill-rule="evenodd" clip-rule="evenodd" d="M2.31509 2.31845C3.80992 0.823619 5.79776 0 7.91217 0C10.0266 0 12.0146 0.823599 13.5093 2.31845C16.4052 5.21361 16.5841 9.8129 14.0469 12.9189L17.7656 16.6376C18.0781 16.9502 18.0781 17.4565 17.7656 17.7691C17.6093 17.9254 17.4046 18.0035 17.1999 18.0035C16.9951 18.0035 16.7904 17.9254 16.6341 17.7691L12.9154 14.0504C11.5065 15.2037 9.75779 15.8312 7.91203 15.8312C5.79762 15.8312 3.80964 15.0076 2.31495 13.5127C-0.77165 10.4269 -0.77165 5.40495 2.31495 2.31835L2.31509 2.31845ZM3.44655 12.3814C4.63974 13.5746 6.22529 14.231 7.91221 14.231C9.59914 14.231 11.1846 13.5738 12.3779 12.3814C14.8402 9.91912 14.8402 5.91214 12.3779 3.45007C11.1847 2.25766 9.59914 1.60049 7.91221 1.60049C6.22529 1.60049 4.63978 2.25766 3.44655 3.45007C0.98427 5.91294 0.98427 9.91932 3.44655 12.3814Z" fill="black"/>
</svg>
